M48
; DRILL file {KiCad 8.0.2-8.0.2-0~ubuntu22.04.1} date 2024-05-22T12:01:24+0200
; FORMAT={-:-/ absolute / inch / decimal}
; #@! TF.CreationDate,2024-05-22T12:01:24+02:00
; #@! TF.GenerationSoftware,Kicad,Pcbnew,8.0.2-8.0.2-0~ubuntu22.04.1
; #@! TF.FileFunction,MixedPlating,1,2
FMAT,2
INCH
; #@! TA.AperFunction,Plated,PTH,ViaDrill
T1C0.0236
; #@! TA.AperFunction,Plated,PTH,ComponentDrill
T2C0.0300
; #@! TA.AperFunction,Plated,PTH,ComponentDrill
T3C0.0315
; #@! TA.AperFunction,Plated,PTH,ComponentDrill
T4C0.0394
; #@! TA.AperFunction,Plated,PTH,ComponentDrill
T5C0.0433
; #@! TA.AperFunction,Plated,PTH,ComponentDrill
T6C0.0512
; #@! TA.AperFunction,NonPlated,NPTH,ComponentDrill
T7C0.1260
%
G90
G05
T1
X5.805Y-4.045
X6.45Y-4.245
T2
X5.7157Y-2.946
X5.7157Y-3.046
X5.7157Y-3.146
X5.7157Y-3.246
X5.7157Y-3.346
X5.7157Y-3.446
X5.7157Y-3.546
X5.7157Y-3.646
X5.7157Y-3.746
X5.7157Y-3.846
X5.7157Y-3.946
X5.7157Y-4.046
X5.7157Y-4.146
X5.7157Y-4.246
X5.7157Y-4.346
X5.7157Y-4.446
X5.7157Y-4.546
X5.7157Y-4.646
X5.7157Y-4.746
X5.7157Y-4.846
X6.3157Y-2.946
X6.3157Y-3.046
X6.3157Y-3.146
X6.3157Y-3.246
X6.3157Y-3.346
X6.3157Y-3.446
X6.3157Y-3.546
X6.3157Y-3.646
X6.3157Y-3.746
X6.3157Y-3.846
X6.3157Y-3.946
X6.3157Y-4.046
X6.3157Y-4.146
X6.3157Y-4.246
X6.3157Y-4.346
X6.3157Y-4.446
X6.3157Y-4.546
X6.3157Y-4.646
X6.3157Y-4.746
X6.3157Y-4.846
T3
X6.4776Y-3.2583
X6.4776Y-3.3583
X6.4776Y-3.4583
X6.4776Y-3.5583
X6.7776Y-3.2583
X6.7776Y-3.3583
X6.7776Y-3.4583
X6.7776Y-3.5583
T4
X5.73Y-5.0
X5.75Y-5.28
X5.825Y-4.245
X5.825Y-4.345
X5.825Y-4.445
X5.825Y-4.545
X5.825Y-4.645
X5.825Y-4.745
X5.825Y-4.845
X5.83Y-5.0
X5.85Y-5.28
X5.855Y-3.455
X5.855Y-3.64
X5.93Y-5.0
X5.95Y-5.28
X6.03Y-5.0
X6.13Y-5.0
X6.18Y-3.3452
X6.18Y-3.4452
X6.23Y-5.0
X6.445Y-4.345
X6.445Y-4.445
X6.445Y-4.545
X6.445Y-4.645
X6.445Y-4.745
X6.45Y-3.745
X6.455Y-4.045
T5
X6.615Y-4.91
X6.715Y-4.91
X6.815Y-4.91
T6
X5.46Y-3.2626
X5.46Y-3.4594
X5.46Y-3.6563
X5.46Y-3.8531
X5.46Y-4.05
X5.46Y-4.2394
X5.46Y-4.4363
X5.46Y-4.6331
X5.46Y-4.83
X5.46Y-5.0269
T7
X5.4724Y-2.9528
X5.4724Y-5.3543
X6.5748Y-2.9528
X6.5748Y-5.3543
M30
