%TF.GenerationSoftware,KiCad,Pcbnew,8.0.2-8.0.2-0~ubuntu22.04.1*%
%TF.CreationDate,2024-05-22T12:01:21+02:00*%
%TF.ProjectId,Tachoconverter,54616368-6f63-46f6-9e76-65727465722e,rev?*%
%TF.SameCoordinates,Original*%
%TF.FileFunction,Soldermask,Bot*%
%TF.FilePolarity,Negative*%
%FSLAX46Y46*%
G04 Gerber Fmt 4.6, Leading zero omitted, Abs format (unit mm)*
G04 Created by KiCad (PCBNEW 8.0.2-8.0.2-0~ubuntu22.04.1) date 2024-05-22 12:01:21*
%MOMM*%
%LPD*%
G01*
G04 APERTURE LIST*
G04 Aperture macros list*
%AMRoundRect*
0 Rectangle with rounded corners*
0 $1 Rounding radius*
0 $2 $3 $4 $5 $6 $7 $8 $9 X,Y pos of 4 corners*
0 Add a 4 corners polygon primitive as box body*
4,1,4,$2,$3,$4,$5,$6,$7,$8,$9,$2,$3,0*
0 Add four circle primitives for the rounded corners*
1,1,$1+$1,$2,$3*
1,1,$1+$1,$4,$5*
1,1,$1+$1,$6,$7*
1,1,$1+$1,$8,$9*
0 Add four rect primitives between the rounded corners*
20,1,$1+$1,$2,$3,$4,$5,0*
20,1,$1+$1,$4,$5,$6,$7,0*
20,1,$1+$1,$6,$7,$8,$9,0*
20,1,$1+$1,$8,$9,$2,$3,0*%
%AMFreePoly0*
4,1,19,0.500000,-0.750000,0.000000,-0.750000,0.000000,-0.744911,-0.071157,-0.744911,-0.207708,-0.704816,-0.327430,-0.627875,-0.420627,-0.520320,-0.479746,-0.390866,-0.500000,-0.250000,-0.500000,0.250000,-0.479746,0.390866,-0.420627,0.520320,-0.327430,0.627875,-0.207708,0.704816,-0.071157,0.744911,0.000000,0.744911,0.000000,0.750000,0.500000,0.750000,0.500000,-0.750000,0.500000,-0.750000,
$1*%
%AMFreePoly1*
4,1,19,0.000000,0.744911,0.071157,0.744911,0.207708,0.704816,0.327430,0.627875,0.420627,0.520320,0.479746,0.390866,0.500000,0.250000,0.500000,-0.250000,0.479746,-0.390866,0.420627,-0.520320,0.327430,-0.627875,0.207708,-0.704816,0.071157,-0.744911,0.000000,-0.744911,0.000000,-0.750000,-0.500000,-0.750000,-0.500000,0.750000,0.000000,0.750000,0.000000,0.744911,0.000000,0.744911,
$1*%
G04 Aperture macros list end*
%ADD10R,1.905000X2.000000*%
%ADD11O,1.905000X2.000000*%
%ADD12R,1.700000X1.700000*%
%ADD13O,1.700000X1.700000*%
%ADD14C,3.200000*%
%ADD15R,2.600000X2.600000*%
%ADD16C,2.600000*%
%ADD17R,2.400000X1.600000*%
%ADD18O,2.400000X1.600000*%
%ADD19R,1.524000X1.524000*%
%ADD20C,1.524000*%
%ADD21RoundRect,0.250000X-0.650000X1.000000X-0.650000X-1.000000X0.650000X-1.000000X0.650000X1.000000X0*%
%ADD22RoundRect,0.250000X-0.625000X0.400000X-0.625000X-0.400000X0.625000X-0.400000X0.625000X0.400000X0*%
%ADD23RoundRect,0.250000X1.025000X-0.787500X1.025000X0.787500X-1.025000X0.787500X-1.025000X-0.787500X0*%
%ADD24FreePoly0,270.000000*%
%ADD25FreePoly1,270.000000*%
%ADD26RoundRect,0.250000X0.625000X-0.400000X0.625000X0.400000X-0.625000X0.400000X-0.625000X-0.400000X0*%
%ADD27RoundRect,0.250000X-0.787500X-1.025000X0.787500X-1.025000X0.787500X1.025000X-0.787500X1.025000X0*%
%ADD28RoundRect,0.200000X-0.200000X0.750000X-0.200000X-0.750000X0.200000X-0.750000X0.200000X0.750000X0*%
%ADD29RoundRect,0.250000X0.412500X0.650000X-0.412500X0.650000X-0.412500X-0.650000X0.412500X-0.650000X0*%
%ADD30RoundRect,0.250000X0.400000X0.625000X-0.400000X0.625000X-0.400000X-0.625000X0.400000X-0.625000X0*%
%ADD31RoundRect,0.250000X-0.400000X-0.625000X0.400000X-0.625000X0.400000X0.625000X-0.400000X0.625000X0*%
%ADD32FreePoly0,90.000000*%
%ADD33FreePoly1,90.000000*%
%ADD34RoundRect,0.150000X-0.825000X-0.150000X0.825000X-0.150000X0.825000X0.150000X-0.825000X0.150000X0*%
%ADD35RoundRect,0.250000X0.650000X-0.412500X0.650000X0.412500X-0.650000X0.412500X-0.650000X-0.412500X0*%
G04 APERTURE END LIST*
D10*
%TO.C,U2*%
X168021000Y-124714000D03*
D11*
X170561000Y-124714000D03*
X173101000Y-124714000D03*
%TD*%
D12*
%TO.C,JP1*%
X146050000Y-134112000D03*
D13*
X148590000Y-134112000D03*
X151130000Y-134112000D03*
%TD*%
D12*
%TO.C,J10*%
X163703000Y-120523000D03*
D13*
X163703000Y-117983000D03*
X163703000Y-115443000D03*
X163703000Y-112903000D03*
X163703000Y-110363000D03*
%TD*%
D14*
%TO.C,H3*%
X139000000Y-75000000D03*
%TD*%
D15*
%TO.C,J3*%
X138684000Y-127682000D03*
D16*
X138684000Y-122682000D03*
X138684000Y-117682000D03*
X138684000Y-112682000D03*
X138684000Y-107682000D03*
%TD*%
D17*
%TO.C,U1*%
X172151000Y-90382000D03*
D18*
X172151000Y-87842000D03*
X172151000Y-85302000D03*
X172151000Y-82762000D03*
X164531000Y-82762000D03*
X164531000Y-85302000D03*
X164531000Y-87842000D03*
X164531000Y-90382000D03*
%TD*%
D14*
%TO.C,H1*%
X167000000Y-136000000D03*
%TD*%
D12*
%TO.C,J8*%
X163957000Y-102743000D03*
%TD*%
%TO.C,J7*%
X163830000Y-95123000D03*
%TD*%
%TO.C,J9*%
X148717000Y-92456000D03*
%TD*%
%TO.C,J4*%
X148717000Y-87757000D03*
%TD*%
%TO.C,J6*%
X147955000Y-107823000D03*
D13*
X147955000Y-110363000D03*
X147955000Y-112903000D03*
X147955000Y-115443000D03*
X147955000Y-117983000D03*
X147955000Y-120523000D03*
X147955000Y-123063000D03*
%TD*%
D19*
%TO.C,A1*%
X145180000Y-74828000D03*
D20*
X145180000Y-77368000D03*
X145180000Y-79908000D03*
X145180000Y-82448000D03*
X145180000Y-84988000D03*
X145180000Y-87528000D03*
X145180000Y-90068000D03*
X145180000Y-92608000D03*
X145180000Y-95148000D03*
X145180000Y-97688000D03*
X145180000Y-100228000D03*
X145180000Y-102768000D03*
X145180000Y-105308000D03*
X145180000Y-107848000D03*
X145180000Y-110388000D03*
X145180000Y-112928000D03*
X145180000Y-115468000D03*
X145180000Y-118008000D03*
X145180000Y-120548000D03*
X145180000Y-123088000D03*
X160420000Y-123088000D03*
X160420000Y-120548000D03*
X160420000Y-118008000D03*
X160420000Y-115468000D03*
X160420000Y-112928000D03*
X160420000Y-110388000D03*
X160420000Y-107848000D03*
X160420000Y-105308000D03*
X160420000Y-102768000D03*
X160420000Y-100228000D03*
X160420000Y-97688000D03*
X160420000Y-95148000D03*
X160420000Y-92608000D03*
X160420000Y-90068000D03*
X160420000Y-87528000D03*
X160420000Y-84988000D03*
X160420000Y-82448000D03*
X160420000Y-79908000D03*
X160420000Y-77368000D03*
X160420000Y-74828000D03*
%TD*%
D14*
%TO.C,H4*%
X139000000Y-136000000D03*
%TD*%
D15*
%TO.C,J1*%
X138684000Y-102870000D03*
D16*
X138684000Y-97870000D03*
X138684000Y-92870000D03*
X138684000Y-87870000D03*
X138684000Y-82870000D03*
%TD*%
D12*
%TO.C,J2*%
X145542000Y-127000000D03*
D13*
X148082000Y-127000000D03*
X150622000Y-127000000D03*
X153162000Y-127000000D03*
X155702000Y-127000000D03*
X158242000Y-127000000D03*
%TD*%
D14*
%TO.C,H2*%
X167000000Y-75000000D03*
%TD*%
D12*
%TO.C,J5*%
X156972000Y-87508000D03*
D13*
X156972000Y-84968000D03*
%TD*%
D21*
%TO.C,D1*%
X133858000Y-125635000D03*
X133858000Y-129635000D03*
%TD*%
D22*
%TO.C,R5*%
X152694910Y-75883615D03*
X152694910Y-78983615D03*
%TD*%
D23*
%TO.C,C3*%
X171500000Y-117112500D03*
X171500000Y-110887500D03*
%TD*%
D24*
%TO.C,JP2*%
X142240000Y-113030000D03*
D25*
X142240000Y-114330000D03*
%TD*%
D26*
%TO.C,R2*%
X168431000Y-88978000D03*
X168431000Y-85878000D03*
%TD*%
D27*
%TO.C,C1*%
X165775000Y-128500000D03*
X172000000Y-128500000D03*
%TD*%
D28*
%TO.C,D2*%
X153863000Y-109244000D03*
X155763000Y-109244000D03*
X154813000Y-112244000D03*
%TD*%
D29*
%TO.C,C4*%
X172562500Y-120000000D03*
X169437500Y-120000000D03*
%TD*%
D30*
%TO.C,R4*%
X155474000Y-106172000D03*
X152374000Y-106172000D03*
%TD*%
D31*
%TO.C,R3*%
X150596000Y-115951000D03*
X153696000Y-115951000D03*
%TD*%
D32*
%TO.C,JP3*%
X168400000Y-92100000D03*
D33*
X168400000Y-90800000D03*
%TD*%
D34*
%TO.C,U5*%
X150179000Y-104013000D03*
X150179000Y-102743000D03*
X150179000Y-101473000D03*
X150179000Y-100203000D03*
X150179000Y-98933000D03*
X150179000Y-97663000D03*
X150179000Y-96393000D03*
X155129000Y-96393000D03*
X155129000Y-97663000D03*
X155129000Y-98933000D03*
X155129000Y-100203000D03*
X155129000Y-101473000D03*
X155129000Y-102743000D03*
X155129000Y-104013000D03*
%TD*%
D22*
%TO.C,R6*%
X150408910Y-75883615D03*
X150408910Y-78983615D03*
%TD*%
D26*
%TO.C,R1*%
X142240000Y-111024000D03*
X142240000Y-107924000D03*
%TD*%
D35*
%TO.C,C2*%
X162560000Y-130213500D03*
X162560000Y-127088500D03*
%TD*%
M02*
