M48
; DRILL file {KiCad 7.0.11-7.0.11~ubuntu20.04.1} date Do 25 Apr 2024 18:45:24
; FORMAT={-:-/ absolute / metric / decimal}
; #@! TF.CreationDate,2024-04-25T18:45:24+02:00
; #@! TF.GenerationSoftware,Kicad,Pcbnew,7.0.11-7.0.11~ubuntu20.04.1
; #@! TF.FileFunction,MixedPlating,1,2
FMAT,2
METRIC
; #@! TA.AperFunction,Plated,PTH,ComponentDrill
T1C0.762
; #@! TA.AperFunction,Plated,PTH,ComponentDrill
T2C0.800
; #@! TA.AperFunction,Plated,PTH,ComponentDrill
T3C1.000
; #@! TA.AperFunction,Plated,PTH,ComponentDrill
T4C1.100
; #@! TA.AperFunction,Plated,PTH,ComponentDrill
T5C1.300
; #@! TA.AperFunction,NonPlated,NPTH,ComponentDrill
T6C2.700
%
G90
G05
T1
X145.18Y-74.828
X145.18Y-77.368
X145.18Y-79.908
X145.18Y-82.448
X145.18Y-84.988
X145.18Y-87.528
X145.18Y-90.068
X145.18Y-92.608
X145.18Y-95.148
X145.18Y-97.688
X145.18Y-100.228
X145.18Y-102.768
X145.18Y-105.308
X145.18Y-107.848
X145.18Y-110.388
X145.18Y-112.928
X145.18Y-115.468
X145.18Y-118.008
X145.18Y-120.548
X145.18Y-123.088
X160.42Y-74.828
X160.42Y-77.368
X160.42Y-79.908
X160.42Y-82.448
X160.42Y-84.988
X160.42Y-87.528
X160.42Y-90.068
X160.42Y-92.608
X160.42Y-95.148
X160.42Y-97.688
X160.42Y-100.228
X160.42Y-102.768
X160.42Y-105.308
X160.42Y-107.848
X160.42Y-110.388
X160.42Y-112.928
X160.42Y-115.468
X160.42Y-118.008
X160.42Y-120.548
X160.42Y-123.088
T2
X164.38Y-83.064
X164.38Y-85.604
X164.38Y-88.144
X164.38Y-90.684
X172.0Y-83.064
X172.0Y-85.604
X172.0Y-88.144
X172.0Y-90.684
T3
X145.161Y-136.017
X145.542Y-127.0
X147.701Y-136.017
X147.828Y-95.25
X148.082Y-127.0
X148.336Y-107.823
X148.336Y-110.363
X148.336Y-112.903
X148.336Y-115.443
X148.336Y-117.983
X148.336Y-120.523
X148.336Y-123.063
X148.59Y-87.503
X150.241Y-136.017
X150.622Y-127.0
X153.162Y-127.0
X155.702Y-127.0
X156.972Y-84.968
X156.972Y-87.508
X158.242Y-127.0
X163.83Y-95.123
X163.83Y-102.743
X163.83Y-105.283
X163.83Y-107.823
X163.83Y-110.363
X163.83Y-112.903
X163.83Y-115.443
X163.83Y-117.983
T4
X167.42Y-124.5
X169.96Y-124.5
X172.5Y-124.5
T5
X138.684Y-82.87
X138.684Y-87.87
X138.684Y-92.87
X138.684Y-97.87
X138.684Y-102.87
X138.684Y-107.682
X138.684Y-112.682
X138.684Y-117.682
X138.684Y-122.682
X138.684Y-127.682
T6
X139.0Y-75.0
X139.0Y-136.0
X167.0Y-75.0
X167.0Y-136.0
M30
